#!OML:ASF F:\VICON\USERDATA\INSTALL\rory3\rory3.ASF
:FULLY-SPECIFIED
:DEGREES
131
root 0.24909060432384617 17.84487477788186 -11.845960585236726 12.260562366289628 -2.0341360579374435 -0.5015291546111912
lfemur -27.40362415307127 6.756238787629974 -20.069981327622884
ltibia 25.60639693570955
lfoot -9.276906887710323 5.629915905586005
ltoes 5.649791645243395
rfemur -25.65001187875873 -2.7280097124859415 18.608450324525062
rtibia 31.742748203944753
rfoot -12.807623519933072 -2.421767181582802
rtoes 11.266402200276394
lowerback 11.160187727726413 0.2009548851297195 -1.5020736222885596
upperback 8.325961366360072 0.22113290268066332 1.4101429696294143
thorax 3.184184910131641 0.018999785669021163 1.7896503588032857
lowerneck -13.170250330002576 -3.4013933366038214 -1.2046254974432409
upperneck 32.47696016776144 -4.8005449777229465 2.547593047665118
head 12.864904146468366 -2.324935600082115 0.8377267501871937
lclavicle -1.2843734312177008e-17 -8.172720755600298e-16
lhumerus -20.561534461050993 -18.322319265276665 86.7727065956935
lradius 27.80555647308372
lwrist 22.987810348128562
lhand -27.20343404618193 -4.822375261305119
lfingers 7.125019999999999
lthumb -1.812878965357278 23.956069445036057
rclavicle -1.1363501038803791e-17 -8.155807489399662e-16
rhumerus -20.773336822361408 -8.104854603822144 -82.5601061743949
rradius 30.4839005261058
rwrist 27.76604026327619
rhand -19.698887695648274 -27.18429624920343
rfingers 7.125019999999999
rthumb 6.25912879238323 -57.00639588398456
132
root 0.23238129637666616 17.86750693334825 -11.948078185002798 12.33035324380625 -1.824898240395041 -0.5049225895562535
lfemur -26.999534163236664 6.841435666225472 -20.11129634854329
ltibia 25.59136563096499
lfoot -9.331698845290962 5.499505394006749
ltoes 5.689791683916585
rfemur -25.415887093239633 -2.8618487534573975 18.706758982076472
rtibia 30.61808011136006
rfoot -12.821181126899416 -2.583865008470959
rtoes 11.484789381188845
lowerback 11.04303278304067 0.2306407730968746 -1.5135840855823859
upperback 8.267011372414894 0.2900934964089832 1.409926344746156
thorax 3.2152837040737046 0.05498429134039651 1.7399665204804713
lowerneck -13.24117097807926 -3.4754325837051354 -1.2993404390291587
upperneck 32.651601677680134 -4.984041984639962 2.693976225647739
head 12.91577122305401 -2.4036219903368172 0.8568741696104937
lclavicle -1.2449241398234774e-17 -8.166802865639382e-16
lhumerus -20.761058830383327 -19.365223678854804 87.27410890511676
lradius 28.854343887512346
lwrist 23.547210064699712
lhand -27.679871689528614 -5.053905791431105
lfingers 7.125019999999999
lthumb -2.079691700369778 23.84049555591776
rclavicle -1.1393682818754624e-17 -8.156224532110356e-16
rhumerus -21.108353371903867 -8.756026712467492 -82.21074377207555
rradius 29.88424634207624
rwrist 27.86733293910603
rhand -19.46991004742492 -27.082366422290253
rfingers 7.125019999999999
rthumb 6.490713181252815 -56.83050715857729
133
root 0.21748928227933761 17.89420478845032 -12.001148187114003 12.394464506240126 -1.6061449641438257 -0.6617683029384716
lfemur -26.755404266914127 6.889813925212087 -19.962705962091604
ltibia 25.56945346262898
lfoot -9.252590170896173 5.515457617559831
ltoes 4.995554629764208
rfemur -25.143902861280935 -2.928368984610163 18.99526892161771
rtibia 29.776758480075728
rfoot -12.839126543606207 -2.826432063475627
rtoes 11.294105706702695
lowerback 10.894209767853566 0.250365818472152 -1.2991811327361176
upperback 8.131373094324577 0.3478646239058215 1.467661239017791
thorax 3.230682770432995 0.08945151251581873 1.6899849371666438
lowerneck -13.335723126365446 -3.5714378048488205 -1.352954023854037
upperneck 32.72191758752283 -5.105491435748786 2.727833375210376
head 12.964692450015983 -2.4907847900591933 0.8380371341293589
lclavicle -1.2139245005551068e-17 -8.162166597508677e-16
lhumerus -20.784051395489012 -19.54654744048702 87.64737734129324
lradius 29.40355244941921
lwrist 23.384661698865063
lhand -27.788373318400847 -5.09706974209512
lfingers 7.125019999999999
lthumb -1.880646929880851 24.056483854846682
rclavicle -1.144239397649871e-17 -8.15688012640019e-16
rhumerus -21.27264986991637 -9.056159206100688 -81.94784372905785
rradius 29.49756995439338
rwrist 27.998072947202356
rhand -19.285570211919534 -27.01517267002273
rfingers 7.125019999999999
rthumb 6.677797888120802 -56.70015210320399
134
root 0.2009904197356266 17.9134883847912 -12.05737864074948 12.360092156715783 -1.4560502022918604 -0.7538984441137074
lfemur -26.75867229091644 6.892122088258765 -19.86533103133037
ltibia 25.867932821440455
lfoot -9.091370542822407 5.505418648977824
ltoes 4.279341874009658
rfemur -25.02170447253726 -2.96621642894329 19.178545955382752
rtibia 29.35069155305596
rfoot -12.854626834224687 -2.9277369775651643
rtoes 10.829412867500073
lowerback 10.699650539957549 0.27845092577423325 -1.225455577808881
upperback 7.929010973414385 0.3950942865291842 1.5280341778897242
thorax 3.2695229661834238 0.1197977248035007 1.6887706589990306
lowerneck -13.41423334680511 -3.6589969944644976 -1.4066074430278706
upperneck 32.66669553247942 -5.226396993540278 2.7090906179274823
head 12.91425192616699 -2.6034613813310408 0.8074953407621297
lclavicle -1.2717442096054803e-17 -8.169154919664243e-16
lhumerus -20.710587203667288 -18.990683476858962 87.91757697679053
lradius 29.473970580744076
lwrist 23.079894172393935
lhand -27.704425890958436 -5.116631666452202
lfingers 7.125019999999999
lthumb -1.6079880063536303 24.244461272323903
rclavicle -1.0881025381098587e-17 -8.14950103660111e-16
rhumerus -21.21089625884647 -9.175707408739012 -81.79331486373749
rradius 29.22219206750099
rwrist 27.987148759165475
rhand -19.17254541285719 -26.997911720662714
rfingers 7.125019999999999
rthumb 6.779522681505748 -56.63467404053592
135
root 0.18173141596314968 17.930794636586405 -12.156305371017808 12.237688303642312 -1.382423421013399 -0.7967346825329243
lfemur -27.185505849892976 6.878132223655923 -19.830865116034932
ltibia 26.469852886217303
lfoot -8.778397535443633 5.414183723312123
ltoes 3.676456960409444
rfemur -25.132426792335853 -3.0562976704299327 19.255375469253305
rtibia 29.195320468989294
rfoot -12.815787902711698 -2.870989042739361
rtoes 10.642410235729667
lowerback 10.211957374338454 0.3028553055534612 -1.2358586595052439
upperback 7.621041045038826 0.41143278889700585 1.5629445116265666
thorax 3.2488426626096976 0.12233780917225717 1.6731451679891445
lowerneck -13.422604172328876 -3.6439992115559403 -1.446183601688827
upperneck 32.49745764192451 -5.193452204679741 2.6573644556079326
head 12.82757604735588 -2.637930437789218 0.7790088739884622
lclavicle -1.1734526984571975e-17 -8.15604739448525e-16
lhumerus -20.62754356705501 -18.316262993435718 88.0748756104617
lradius 29.180206697770075
lwrist 22.608978895376495
lhand -27.328535040718027 -5.040665321786181
lfingers 7.125019999999999
lthumb -1.4497821984820702 24.33212085552722
rclavicle -1.1149040895535971e-17 -8.153007478862767e-16
rhumerus -21.01543374556324 -8.883382671687993 -81.83472686205666
rradius 29.21960654062081
rwrist 27.778394749311463
rhand -19.050943901437645 -26.95992519829
rfingers 7.125019999999999
rthumb 6.939030092419148 -56.59105677021406
136
root 0.17011418288904678 17.954198853245256 -12.203048103014062 12.075866525372884 -1.2388240970478708 -0.8368613277229369
lfemur -27.878873119649487 6.853482722115728 -19.812701093811906
ltibia 27.094969987344648
lfoot -8.481264771271523 5.249286073101716
ltoes 3.310021898661926
rfemur -25.35611267707152 -3.1846233450185446 19.32909061982103
rtibia 29.446336236766243
rfoot -12.74927011219071 -2.857619590586263
rtoes 10.820238086182275
lowerback 9.494251517724372 0.268580726571903 -1.2096707887345528
upperback 7.222870113840748 0.3693166224754637 1.6017303721470808
thorax 3.2458700410575623 0.10052046733352488 1.6804742543348408
lowerneck -13.40057274645429 -3.552919809026858 -1.4829490915966266
upperneck 32.1670250820587 -5.067734812639737 2.6494669669446416
head 12.641836797799623 -2.5600364584037854 0.7684359224387495
lclavicle -1.1037914795196393e-17 -8.146781726148608e-16
lhumerus -20.563302286998617 -17.4338822701365 88.18692366759159
lradius 28.70804689023489
lwrist 21.527634764732397
lhand -26.81273541776582 -4.80845244744701
lfingers 7.125019999999999
lthumb -1.1532390642259744 24.592748819092186
rclavicle -1.1257737645155019e-17 -8.154423569935952e-16
rhumerus -20.66287434890383 -8.223886998575654 -82.0703248537387
rradius 29.59562797850595
rwrist 27.283164759208027
rhand -18.876835568054595 -26.881572594430615
rfingers 7.125019999999999
rthumb 7.115778857068083 -56.53545227541898
137
root 0.16537419647974083 17.971910324922124 -12.214834060982547 11.915892404126717 -1.0217712726058494 -0.8550596476883404
lfemur -28.54616438285546 6.85617791367658 -19.831987891636366
ltibia 27.678434238172418
lfoot -8.297148428731159 5.02592652941307
ltoes 3.3674904175383005
rfemur -25.41746653342216 -3.423625971169247 19.397469256254638
rtibia 29.48903265951764
rfoot -12.645994191379021 -2.7655015447319427
rtoes 11.145309839915281
lowerback 8.727771916020307 0.20877786632915848 -1.1986666079830548
upperback 6.790597572866485 0.28516432507479195 1.6253096014555286
thorax 3.20728120008401 0.0548478078160915 1.7056261754014417
lowerneck -13.379533788766281 -3.517950270153096 -1.5588383969902653
upperneck 31.99329451269231 -5.000645317368738 2.720316233307356
head 12.557056721823821 -2.4660230957990024 0.7886458454223015
lclavicle -1.1123281536457457e-17 -8.148781086110277e-16
lhumerus -20.496057905500358 -16.518781576681572 88.27834011527888
lradius 28.18539480170918
lwrist 20.21190552557926
lhand -26.2646518751856 -4.572686347591466
lfingers 7.125019999999999
lthumb -0.6563292255963235 24.944018762636507
rclavicle -1.1277023396645893e-17 -8.154664244878051e-16
rhumerus -20.249488326381716 -7.199875056845546 -82.37480096286737
rradius 30.331857094689806
rwrist 26.664353537380762
rhand -18.683129802133365 -26.774411658997426
rfingers 7.125019999999999
rthumb 7.309029478723411 -56.48053279384059
